<svg viewBox="0 0 2480 2480" xmlns="http://www.w3.org/2000/svg" fill="#ff6b35">
  <path transform="matrix(1.22576 0 0 1.22576 -282.528 -294.318)" d="M948.264,990.851C948.264,990.851 567.607,999.354 563.06,1404.57C558.745,1789.06 830.099,1855.79 945.666,1854.43C1061.23,1853.07 1178.45,1835.48 1273.29,1700.6L1168.53,1545.17C1168.53,1545.17 1074.28,1653.77 944.662,1632.92C815.04,1612.08 788.643,1495.92 793.663,1393.53C797.398,1317.32 850.53,1207.72 979.74,1206.04C1111.02,1204.32 1174.67,1297.63 1174.67,1297.63L1273.53,1127.26C1273.53,1127.26 1158.67,980.989 948.264,990.851Z"/>
  <path transform="matrix(-1.22576 0 0 -1.22576 2761.36 2711.41)" d="M948.264,990.851C948.264,990.851 567.607,999.354 563.06,1404.57C558.745,1789.06 830.099,1855.79 945.666,1854.43C1061.23,1853.07 1178.45,1835.48 1273.29,1700.6L1168.53,1545.17C1168.53,1545.17 1074.28,1653.77 944.662,1632.92C815.04,1612.08 788.643,1495.92 793.663,1393.53C797.398,1317.32 850.53,1207.72 979.74,1206.04C1111.02,1204.32 1174.67,1297.63 1174.67,1297.63L1273.53,1127.26C1273.53,1127.26 1158.67,980.989 948.264,990.851Z"/>
</svg>
